<svg width="283" height="94" viewBox="0 0 283 94" fill="none" xmlns="http://www.w3.org/2000/svg">
<path d="M101.731 77L98.624 37.7959H108.777L110.331 64.0645H110.692L122.436 37.7959H133.167L134.721 64.0645H135.118L146.861 37.7959H157.448L139.093 77H127.35L125.471 52.2129H125.109L113.655 77H101.731ZM152.031 77L159.655 37.7959H170.025L162.401 77H152.031ZM166.087 33.7129C164.449 33.7129 163.112 33.2191 162.076 32.2314C161.04 31.2438 160.522 30.0153 160.522 28.5459C160.522 26.7152 161.149 25.1494 162.401 23.8486C163.678 22.5238 165.147 21.8613 166.81 21.8613C168.448 21.8613 169.784 22.3551 170.82 23.3428C171.856 24.3304 172.374 25.571 172.374 27.0645C172.374 28.8952 171.748 30.4609 170.495 31.7617C169.242 33.0625 167.773 33.7129 166.087 33.7129ZM171.257 77L176.93 47.4072H170.643L172.594 37.7959H178.881L179.676 33.3516C180.904 26.4382 184.999 22.9814 191.961 22.9814H201.283L199.513 32.2314H193.442C192.358 32.2314 191.479 32.5446 190.805 33.1709C190.154 33.7731 189.757 34.568 189.612 35.5557L189.215 37.7959H198.465L196.55 47.4072H187.3L181.627 77H171.257ZM209.271 77C205.923 77 203.358 76.1328 201.575 74.3984C199.793 72.64 198.901 70.3034 198.901 67.3887C198.901 66.401 198.998 65.4134 199.19 64.4258L202.442 47.4072H196.155L198.106 37.7959H204.393L207.862 27.4258H216.751L214.727 37.7959H223.977L222.062 47.4072H212.812L209.705 63.3057C209.657 63.4984 209.633 63.7995 209.633 64.209C209.633 65.1003 209.91 65.859 210.464 66.4854C211.042 67.0876 211.801 67.3887 212.74 67.3887H218.232L216.39 77H209.271ZM221.198 77L231.279 25.1855H241.613L231.568 77H221.198ZM238.87 91.8145L248.12 76.3496L239.882 37.7959H250.83L255.419 63.3057H255.708L270.089 37.7959H282.085L250.107 91.8145H238.87Z" fill="black"/>
<path d="M34.5402 11.2097H89.7903L42.8997 56.7691C28.739 70.5276 5 60.4938 5 40.7499C5 24.4353 18.2256 11.2097 34.5402 11.2097Z" fill="black"/>
<path d="M63.4598 90.3831H8.20972L55.1003 44.8237C69.261 31.0651 93 41.099 93 60.8429C93 77.1575 79.7744 90.3831 63.4598 90.3831Z" fill="black"/>
<path d="M31.6774 55.3431L54.8202 22.7111L53.2151 47.3187L64.5 47.3187L44.9232 79.1486L44.9233 55.343L31.6774 55.3431Z" fill="#FBC206"/>
</svg>
